<svg width="90" height="46" viewBox="0 0 90 46" xmlns="http://www.w3.org/2000/svg"><title>映画</title><path d="M17.938 45.422l-1.032-1.734 4.453-5.813 1.36-4.453h-3.423l-2.063.703L14.516 30l4.78-1.03v-1.032c-1.124-2.97-1.468-6.282-1.03-9.938l.375-5.484h5.485l1.688.328c.906-3.657 1.25-7.422 1.03-11.297h2.063l1.735 1.36v1.03c-1.156 2.75-1.5 5.72-1.03 8.907 2.28.22 4.327 1.015 6.14 2.39 1.594 2.282 2.28 4.907 2.063 7.875l-2.063 5.53 1.36 1.688c-1.813 1.375-3.86 2.063-6.14 2.063l-.33 1.36c3.407 2.97 6.25 6.172 8.532 9.61H37.11c-4.094-2.282-7.172-5.485-9.235-9.61v-.656h-.703c-1.594 3.875-3.766 7.406-6.516 10.593l-2.718 1.735zM4.578 39.61l-3.094-3.47v-1.36l.657-1.358c-.218-3.875-.89-7.64-2.015-11.297l1.36-.375.656-8.203-.328-1.03 2.063-.704c2.28.218 4.344 1.14 6.188 2.765 2.5 3.875 3.64 8.22 3.42 13.03 0 2.033-.577 3.86-1.733 5.486 1.156-.25 1.734.093 1.734 1.03-2.062 2.032-4.468 3.282-7.218 3.75l-.657 1.36-1.032.375zM8 33.093l1.03-5.86c-1.374-.687-2.858-.906-4.452-.656-1.156 1.813-1.5 3.984-1.03 6.516l2.06.656L8 33.094zm16.453-4.828c1.125-3.438 1.922-7.094 2.39-10.97l-3.75-1.03c-1.374 2.75-1.843 5.953-1.405 9.61l.703 2.39 1.735.375.328-.374zm7.875 0c.906-2.75 1.484-5.72 1.734-8.907l-1.406-1.735h-2.39l-1.688 10.64 3.422.376.328-.374zM9.03 23.813c0-2.97-.686-5.485-2.06-7.547l-1.032-.328-2.063 1.03v5.157c1.375.906 2.97 1.578 4.78 2.016l.376-.328zm41.814 20.25l-4.453-2.766c-.687-3.438-.92-7.094-.703-10.97l2.766-12.702h1.03c1.126 2.53 1.58 5.39 1.36 8.578l-.327.375v.656l.328.375c-.47 2.718-.813 5.452-1.032 8.203l.704 3.796 1.687.328c5.28-.47 10.492-1.102 15.633-1.9 5.14-.796 10.226-1.772 15.258-2.93.22-3.655.445-7.366.68-11.13.234-3.767.804-7.37 1.71-10.806h1.36l2.765 2.765v1.36l-.376 1.03.375 2.064-.376 1.032.375 14.72c-.25 2.75-1.063 5.155-2.438 7.217h-1.03c-1.345-1.376-2.25-2.97-2.72-4.782l-1.03-.375c-5.033 1.625-10.173 2.89-15.423 3.797-5.25.906-10.626 1.594-16.126 2.063zm10.265-7.22l-2.72-1.03c-2.062-4.344-2.86-9.14-2.39-14.39l2.063-6.19 1.03-.327 2.72.703 3.093-.704c-.594-2.812-.594-5.672 0-8.578l-2.39-.703L61.484 6l-2.765-.375L57.03 6c-2.968.22-5.483-.578-7.546-2.39l-.375-1.407.374-.656h2.063l1.03.328c2.97-.22 5.82-.562 8.556-1.03 2.734-.47 5.71-.58 8.93-.33 5.03.22 9.718 1.016 14.062 2.39v1.736C79.312 5.767 74.28 6.438 69.03 6.657l-.374 7.922c2.75.688 5.156 2.047 7.22 4.078l2.06 5.86c.22 3.187-.81 5.92-3.092 8.203l-2.72 2.06-1.03-.327-2.438.656v.703l-7.547 1.03zm3.468-3.75l.328-2.437-.328-2.015c-1.375.22-2.64-.124-3.797-1.03l-.327 2.015 1.03 4.125h1.36l1.735-.656zm7.172-1.734l.703-4.454-1.734-.328-2.064 1.36-.328 1.36.703 2.06h2.72zm-7.547-6.516v-1.36l.375-2.765c-1.375 0-2.53-.345-3.47-1.032-.655 1.156-.874 2.42-.655 3.796l.656 1.688 1.03.375 2.063-.703zm8.578-1.032v-1.36l-1.03-2.39-3.094-.703-.328 2.39.328 2.063h4.125z" fill="#cc343f" fill-rule="evenodd"/></svg>
