<svg width="138" height="71" viewBox="0 0 138 71" xmlns="http://www.w3.org/2000/svg"><title>Group</title><path d="M44.176 16.026s-3.428.133-4.594-.933c-1.166-1.067.762-6.416.762-6.416-11.55 0-13.8 9.534-13.8 9.534 15.244-3.974 16.068 6.22 16.068 6.22-13.155 0-28.273 14.14-30.85 27.95-2.577 13.81 6.017 10.81 10.03 8.105 4.014-2.705 24.213-24.895 29.654-35.083 5.442-10.188 13.618-1.204 13.618-1.204-15.674 25.112-8.84 23.74-8.84 23.74 2.26.32 5.35-6.17 5.35-6.17-.982-8.904 8.22-16.99 14.903-19.795 6.682-2.806 10.824 6.38 10.824 6.38s-7.38-.014-13.807 9.61c-6.426 9.622-3.6 12.375 1.67 4.6 5.27-7.773 9.31-8.854 9.31-8.854 11.226-4.04 8.098 9.198 8.098 9.198l3.448-.344c3.253-12.47 9.41-17.852 16.698-20.59 7.287-2.74 9.385 6.92 9.385 6.92 5.074-2.252 8.382 4.36 8.382 4.36-5.49 8.046-3.054 13.01-1.934 13.236 1.12.227 4.677-4.955 6.262-7.92 1.585-2.963 2.885-.608 2.885-.608.133 5.913-2.905 9.828-9.147 12.88-6.24 3.052-6.797-12.585-9.76-12.585s-5.364 10.014-13.226 11.857c-7.863 1.843-9.544-6.13-9.544-6.13l-3.79.41-.538 3.53c-.622 2.19.54 4.372.54 4.372 11.48 9.127 2.332 10.802 2.332 10.802-.72-5.793-5.786-7.504-5.786-7.504-2.928 5.192-9.206 8.946-9.206 8.946-17.898 10.49-26.737 5.775-24.585-1.442C57.138 55.88 79.57 50.842 79.57 50.842c3.154-.096 4.926-13.96 4.034-13.96-.893 0-7.127 8.727-7.127 8.727-9.367 13.57-14.358-.554-14.358-.554s.784 3.612-4.997 5.786c-5.782 2.174-11.56-10.806-11.56-10.806l-12.636 16.38c-20 25.497-30.676-.966-30.676-.966-9.49-24.24 18.7-35.353 18.7-35.353-9.14-4.78-2.022-12.59-2.022-12.59 6.456-8.364 24.05-3.99 24.05-3.99 6.726-7.885 9.855 1.113 9.855 1.113l-8.657 11.396zm14.5-3.964s-1.83-7.234 4.966-4.823c6.796 2.41 5.543 6.638 5.543 6.638l-1.48 1.325.376 2.314s-9.13 1.12-9.13-3.334c0-4.454-.273-2.12-.273-2.12zm5.767 47.2c-2.773 1.704-7.865 5.432-5.138 6.357 1.624.55 8.977-3.424 8.977-3.424 17.865-11.078 9.296-8.542 2.157-5.654-2.72 1.1-5.232 2.25-5.997 2.72zm42.47-18.59s-1.003 1.878 0 2.036c1.004.158 4.82-3.145 7.676-6.616 2.854-3.47 5.826-6.255 4.443-6.575-1.318-.306-4.2 1.554-7.025 4.53-2.824 2.974-5.095 6.624-5.095 6.624z" fill="#FFF" fill-rule="evenodd"/></svg>